<?xml version="1.0" encoding="utf-8"?>
<!-- Generator: Adobe Illustrator 27.9.4, SVG Export Plug-In . SVG Version: 9.03 Build 54784)  -->
<svg version="1.1" id="レイヤー_1" xmlns="http://www.w3.org/2000/svg" xmlns:xlink="http://www.w3.org/1999/xlink" x="0px"
	 y="0px" viewBox="0 0 1472 244" style="enable-background:new 0 0 1472 244;" xml:space="preserve"><metadata><c2pa:manifest xmlns:c2pa="http://c2pa.org/manifest">AABBFmp1bWIAAAAeanVtZGMycGEAEQAQgAAAqgA4m3EDYzJwYQAAAEDwanVtYgAAAEdqdW1kYzJtYQARABCAAACqADibcQN1cm46dXVpZDozNGZmOTk3MS05MmQ0LTRlNmYtYjEzMS1jZjU4YjYyZjkyMTAAAAAEh2p1bWIAAAApanVtZGMyYXMAEQAQgAAAqgA4m3EDYzJwYS5hc3NlcnRpb25zAAAAAM5qdW1iAAAALGp1bWRjYm9yABEAEIAAAKoAOJtxA2MycGEuaW5ncmVkaWVudC52MgAAAACaY2JvcqRoZGM6dGl0bGV4H3RvcHBhbl9sb2dvX3doaXRlLXdtLXNpZ25lZC5zdmdpZGM6Zm9ybWF0bWltYWdlL3N2Zyt4bWxscmVsYXRpb25zaGlwaHBhcmVudE9mamluc3RhbmNlSUR4LHhtcDppaWQ6MzMzMzMyODMtMDZjYi00MmRhLTllMjMtNTNhOTk0Y2NmYWQ0AAABP2p1bWIAAABOanVtZGpzb24AEQAQgAAAqgA4m3ETc3Rkcy5zY2hlbWEtb3JnLkNyZWF0aXZlV29yawAAAAAYYzJzaAJazijn1X975B+UMPGWXhwAAADpanNvbnsiQGNvbnRleHQiOiJodHRwczovL3NjaGVtYS5vcmciLCJAdHlwZSI6IkNyZWF0aXZlV29yayIsImRhdGFDcmVhdGVkIjoiMjAyNS0wNy0yMyIsImF1dGhvciI6W3sibmFtZSI6IlRPUFBBTuODh+OCuOOCv+ODq+agquW8j+S8muekviIsIkB0eXBlIjoiT3JnYW5pemF0aW9uIn1dLCJkZXNjcmlwdGlvbiI6IlRPUFBBTuODm+ODvOODq+ODh+OCo+ODs+OCsOOCueagquW8j+S8muekviDjg63jgrQifQAAAFlqdW1iAAAAJmp1bWRjYm9yABEAEIAAAKoAOJtxA2MycGEuYWN0aW9ucwAAAAArY2JvcqFnYWN0aW9uc4GhZmFjdGlvbnBjMnBhLndhdGVybWFya2VkAAAAyWp1bWIAAABGanVtZGNib3IAEQAQgAAAqgA4m3ETYzJwYS50cmFpbmluZy1taW5pbmcAAAAAGGMyc2jVCVJQHgIofLTfrKZ403kaAAAAe2Nib3KhZ2VudHJpZXOkcGMycGEuYWlfdHJhaW5pbmehY3VzZWBwYzJwYS5kYXRhX21pbmluZ6FjdXNlYHFjMnBhLmFpX2luZmVyZW5jZaFjdXNlYHgbYzJwYS5haV9nZW5lcmF0aXZlX3RyYWluaW5noWN1c2VgAAAAemp1bWIAAABJanVtZGNib3IAEQAQgAAAqgA4m3ETb3JnLnRvcHBhbi51c2FnZS1wb2xpY3kAAAAAGGMyc2hHIeG8//U/frs7UwAzQMhyAAAAKWNib3KhZ2VudHJpZXOiZXJldXNlYG5jb21tZXJjaWFsX3VzZWAAAACtanVtYgAAAChqdW1kY2JvcgARABCAAACqADibcQNjMnBhLmhhc2guZGF0YQAAAAB9Y2JvcqVqZXhjbHVzaW9uc4GiZXN0YXJ0GQGrZmxlbmd0aBlWyGRuYW1lbmp1bWJmIG1hbmlmZXN0Y2FsZ2ZzaGEyNTZkaGFzaFggV5g/l+0sVVbAp/DlzxrGNDljgCfDwb3mPqZsFW6WekJjcGFkSQAAAAAAAAAAAAAAA9pqdW1iAAAAJGp1bWRjMmNsABEAEIAAAKoAOJtxA2MycGEuY2xhaW0AAAADrmNib3Kob2NsYWltX2dlbmVyYXRvcm5jMnBhLXJzLzAuNDkuMXRjbGFpbV9nZW5lcmF0b3JfaW5mb4G/ZG5hbWVnYzJwYS1yc2d2ZXJzaW9uZjAuNDkuMW9vcmcuY2FpLmMycGFfcnNmMC40OS4x/2lzaWduYXR1cmV4TXNlbGYjanVtYmY9L2MycGEvdXJuOnV1aWQ6MzRmZjk5NzEtOTJkNC00ZTZmLWIxMzEtY2Y1OGI2MmY5MjEwL2MycGEuc2lnbmF0dXJlamFzc2VydGlvbnOGomN1cmx4LXNlbGYjanVtYmY9YzJwYS5hc3NlcnRpb25zL2MycGEuaW5ncmVkaWVudC52MmRoYXNoWCB4sHspEb8LAidr1U1316NlA9M9fghiFOozhYMxDUk3L6JjdXJseDdzZWxmI2p1bWJmPWMycGEuYXNzZXJ0aW9ucy9zdGRzLnNjaGVtYS1vcmcuQ3JlYXRpdmVXb3JrZGhhc2hYIIJ4su1XYpI2kQFAeQGocy7nb0EZKELBqPFImSMpNH3uomN1cmx4J3NlbGYjanVtYmY9YzJwYS5hc3NlcnRpb25zL2MycGEuYWN0aW9uc2RoYXNoWCDBghPE9blx6xmI0/c0fe2WLLOQJS07b9Mlz+Bhp16urqJjdXJseC9zZWxmI2p1bWJmPWMycGEuYXNzZXJ0aW9ucy9jMnBhLnRyYWluaW5nLW1pbmluZ2RoYXNoWCBy9vxaMlrm4j6DgpOk3E8UANv3xIkGOCJpA4UKJYk42KJjdXJseDJzZWxmI2p1bWJmPWMycGEuYXNzZXJ0aW9ucy9vcmcudG9wcGFuLnVzYWdlLXBvbGljeWRoYXNoWCCn9YwsK+H615t634PQMOfL11xYMwP4pbZKM5tmKyb9JqJjdXJseClzZWxmI2p1bWJmPWMycGEuYXNzZXJ0aW9ucy9jMnBhLmhhc2guZGF0YWRoYXNoWCCv7FpOzCFZUYc/qGVeaCSIOGNr5FPQyPIKBUJwiZnOLWlkYzpmb3JtYXRtaW1hZ2Uvc3ZnK3htbGppbnN0YW5jZUlEeCx4bXA6aWlkOjc1ZTUzMGYwLTcxOGQtNDhiNS1hYTE1LWFlYzBlMzI3OTY0ZWhkYzp0aXRsZXhGVE9QUEFO44Ob44O844Or44OH44Kj44Oz44Kw44K55qCq5byP5Lya56S+IOOCs+ODvOODneODrOODvOODiOOCteOCpOODiGNhbGdmc2hhMjU2AAA4QGp1bWIAAAAoanVtZGMyY3MAEQAQgAAAqgA4m3EDYzJwYS5zaWduYXR1cmUAAAA4EGNib3LShFkNBaIBOCQYIYJZBkwwggZIMIIEMKADAgECAgwCJrFbtNuYX6wOlXMwDQYJKoZIhvcNAQELBQAwUjELMAkGA1UEBhMCQkUxGTAXBgNVBAoTEEdsb2JhbFNpZ24gbnYtc2ExKDAmBgNVBAMTH0dsb2JhbFNpZ24gR0NDIFI2IFNNSU1FIENBIDIwMjMwHhcNMjQxMjA5MjM1MjQ5WhcNMjUxMjEwMjM1MjQ5WjCBiDELMAkGA1UEBhMCSlAxDjAMBgNVBAgTBVRva3lvMQ8wDQYDVQQHEwZCdW5reW8xHDAaBgNVBGETE1ZBVEpQLTkwMTA1MDEwNTAwODgxHDAaBgNVBAoTE1RPUFBBTiBEaWdpdGFsIEluYy4xHDAaBgNVBAMTE1RPUFBBTiBEaWdpdGFsIEluYy4wggEiMA0GCSqGSIb3DQEBAQUAA4IBDwAwggEKAoIBAQDSXZ+0utImIdAPJAOX4sgfRrkFv5+kOcviX9pBcc7F3bxhpgI5YQhoD5v6Y29r4kMe8AssA4EpxPogXgTwklc4pioSqY4zwSend6UdXBa1UQ9N7jq2c/3FkGe+M4NHfOi4uiIzmy8Y7psRHPBVqCTzrcQxgc19+/BxuNqgQt8sZe0hVt7JACtb80/Y+tXkA5M2odJqTaBs9at7C9wnQwnDC+xt99ourVObcreexBJ+m2oqObwvx8I/hM1U44XzdeeRBvecAQnFtytbJrpXqVxP5njVya7Ew8A8wk2cGCwhHsPW1voV2ZtbjB5bLqX7U6m0SOXJCuKhucCnpgavDhRZAgMBAAGjggHlMIIB4TAOBgNVHQ8BAf8EBAMCBaAwgZMGCCsGAQUFBwEBBIGGMIGDMEYGCCsGAQUFBzAChjpodHRwOi8vc2VjdXJlLmdsb2JhbHNpZ24uY29tL2NhY2VydC9nc2djY3I2c21pbWVjYTIwMjMuY3J0MDkGCCsGAQUFBzABhi1odHRwOi8vb2NzcC5nbG9iYWxzaWduLmNvbS9nc2djY3I2c21pbWVjYTIwMjMwZQYDVR0gBF4wXDAJBgdngQwBBQIBMAsGCSsGAQQBoDIBKDBCBgorBgEEAaAyCgMBMDQwMgYIKwYBBQUHAgEWJmh0dHBzOi8vd3d3Lmdsb2JhbHNpZ24uY29tL3JlcG9zaXRvcnkvMAkGA1UdEwQCMAAwQQYDVR0fBDowODA2oDSgMoYwaHR0cDovL2NybC5nbG9iYWxzaWduLmNvbS9nc2djY3I2c21pbWVjYTIwMjMuY3JsMCUGA1UdEQQeMByBGm1hc2Fha2lfMi5pdG9AdG9wcGFuLmNvLmpwMB0GA1UdJQQWMBQGCCsGAQUFBwMCBggrBgEFBQcDBDAfBgNVHSMEGDAWgBQAKTaeXHq6D68tUC3boCOFGLCgkjAdBgNVHQ4EFgQU2cYdnw+Z23uoU/xtqo55yEJF23swDQYJKoZIhvcNAQELBQADggIBAMB4ON2EZCN41Eg2kdSJ07wzLvMlYy5x2avVuFnSqHSU5VwI5M+6ag6nDHGtCDcp0E/V2jq2Y6iPpciO9MnwtGBIMyw2rUtmFl1nSPY4+nLPP6cY5LsVKaH7vECdBur93ZxrAHH5TUSO9yP+ZL0ETEMvXFJYuPp/5tNba30QQecYU1Y2Wr1zo8+CHjjGaEG0ZiLqnd/Ylkl9tZligqxZVWHd0XOzmO93vBaFM6Y5Ea7RANOTq1qdiHbl2VVi20Q1siMEbIFijL7845VLYNFZxYpgmvC63sHx4uBo6Th30zeuQIo8DY8Sh2xBtP/JGf6kWGBhG8wOu3EkLB4pW2QgU/R/GIfB53xvmuxrkOjoU+lbDs9JqmgzdIGvB9NvEyxo1qSJWYo/+/DXeLdEWvFCPLkFbAUAjDCboLjvvJLhOENRlCV3eQn5f7VkceH8I049oyxKogxuOkZyUXlzWLbuk5U32NRf+mHY2D67Vn7S0hfNw4CF2Pdo7D1HrM42vPZk8Rdd7HD7ZRpBP8lpI97gf6WgSACYAIaKE/Arq7ooeBqJ5SyJ1R5n2Sr6LjMp2c0h1MM+J8pn9rUtDDJWSqXuBYnq2KA90Yn/wS2I6kmCXUG11aKHM1h/5m+yrMHYB1MvcOcRnPke8iJ32MsD0f4GG5MHAcXIpO7hXT1vbbfYfhSrWQasMIIGqDCCBJCgAwIBAgIQfofDCS7XZu8vIeKo0KeY9DANBgkqhkiG9w0BAQwFADBMMSAwHgYDVQQLExdHbG9iYWxTaWduIFJvb3QgQ0EgLSBSNjETMBEGA1UEChMKR2xvYmFsU2lnbjETMBEGA1UEAxMKR2xvYmFsU2lnbjAeFw0yMzA0MTkwMzUzNTNaFw0yOTA0MTkwMDAwMDBaMFIxCzAJBgNVBAYTAkJFMRkwFwYDVQQKExBHbG9iYWxTaWduIG52LXNhMSgwJgYDVQQDEx9HbG9iYWxTaWduIEdDQyBSNiBTTUlNRSBDQSAyMDIzMIICIjANBgkqhkiG9w0BAQEFAAOCAg8AMIICCgKCAgEAwjAEbSkPcSyn26Zn9VtoE/xBvzYmNW29bW1pJZ7jrzKwPJm/GakCvy0IIgObMsx9bpFaq30X1kEJZnLUzuE1/hlchatYqyORVBeHlv5V0QRSXY4faR0dCkIhXhoGknZ2O0bUJithcN1IsEADNizZ1AJIaWsWbQ4tYEYjytEdvfkxz1WtX3SjtecZR+9wLJLt6HNa4sC//QKdjyfr/NhDCzYrdIzAssoXFnp4t+HcMyQTrj0rpD8KkPj96sy9axzegLbzte7wgTHbWBeJGp0sKg7BAu+G0Rk6teO1yPd75arbCvfY/NaRRQHk6tmG71gpLdB1ZhP9IcNYyeTKXIgfMh2tVK9DnXGaksYCyi6WisJa1Oa+poUroX2ESXO6o03lVxiA1xyfG8lUzpUNZonGVrUjhG5+MdY16/6b0uKejZCLbgu6HLPvIyqdTb9XqF4XWWKu+OMDs/rWyQ64v3mvSa0te5Q5tchm4m9K0Pe9LlIKBk/gsgfaOHJDp4hYx4wocDr8DeCZe5d5wCFkxoGc1ckM8ZoMgpUc4pgkQE5ShxYMmKbPvNRPa5YFzbFtcFn5RMr1Mju8gt8J0c+dxYco2hi7dEW391KKxGhv7MJBcc+0x3FFTnmhU+5t6+CnkKMlrmzyaoeVryRTvOiH4FnTNHtVKUYDsCM0CLDdMNgoxgkCAwEAAaOCAX4wggF6MA4GA1UdDwEB/wQEAwIBhjBMBgNVHSUERTBDBggrBgEFBQcDAgYIKwYBBQUHAwQGCisGAQQBgjcUAgIGCisGAQQBgjcKAwwGCisGAQQBgjcKAwQGCSsGAQQBgjcVBjASBgNVHRMBAf8ECDAGAQH/AgEAMB0GA1UdDgQWBBQAKTaeXHq6D68tUC3boCOFGLCgkjAfBgNVHSMEGDAWgBSubAWjkxPioufi1xzWx/B/yGdToDB7BggrBgEFBQcBAQRvMG0wLgYIKwYBBQUHMAGGImh0dHA6Ly9vY3NwMi5nbG9iYWxzaWduLmNvbS9yb290cjYwOwYIKwYBBQUHMAKGL2h0dHA6Ly9zZWN1cmUuZ2xvYmFsc2lnbi5jb20vY2FjZXJ0L3Jvb3QtcjYuY3J0MDYGA1UdHwQvMC0wK6ApoCeGJWh0dHA6Ly9jcmwuZ2xvYmFsc2lnbi5jb20vcm9vdC1yNi5jcmwwEQYDVR0gBAowCDAGBgRVHSAAMA0GCSqGSIb3DQEBDAUAA4ICAQCRkUdr1aIDRmkNI5jx5ggapGUThq0KcM2dzpMu314mJne8yKVXwzfKBtqbBjbUNMODnBkhvZcnbHUStur2/nt1tP3ee8KyNhYxzv4DkI0NbV93JChXipfsan7YjdfEk5vI2Fq+wpbGALyyWBgfy79YIgbYWATB158tvEh5UO8kpGpjY95xv+070X3FYuGyeZyIvao26mN872FuxRxYhNLwGHIy38N9ASa1Q3BTNKSrHrZngadofHglG5W3TMFR11JOEOAUHhUgpbVVvgCYgGA6dSX0y5z7k3rXVyjFOs7KBSXrdJPKadpl4vqYphH7+P40nzBRcxJHrv5FeXlTrb+drjyXNjZSCmzfkOuCqPspBuJ7vab0/9oeNERgnz6SLCjLKcDXbMbKcRXgNhFBlzN4OUBqieSBXk80w2Nzx12KvNj758WavxOsXIbX0Zxwo1h3uw75AI2v8qwFWXNclO8qW2VXoq6kihWpeiuvDmFfSAwRLxwwIjgUuzG9SaQ+pOomuaC7QTKWMI0hL0b4mEPq9GsPPQq1UmwkcYFJ/Z4I93DZuKcXmKMmuANTS6wxwIEw8Q5MQ6y9fbJxGEOgOgYL4QIqNULb5CYPnt2LeiIiEnh8Uuh8tawqSjnR0h7Bv5q4mgo3L1Z9QQuexUntWD96t4o0q1jXWLyrpgP7ZcnuC6Jmc2lnVHN0oWl0c3RUb2tlbnOBoWN2YWxZF3gwghd0MAMCAQAwghdrBgkqhkiG9w0BBwKgghdcMIIXWAIBAzEPMA0GCWCGSAFlAwQCAQUAMIGDBgsqhkiG9w0BCRABBKB0BHIwcAIBAQYJYIZIAYb9bAcBMDEwDQYJYIZIAWUDBAIBBQAEIENpV3ZQ27/LLNdLe4hty+nragiByv9z6cq9ueEg25WbAhEAkPqTzxkXvkNzPVlcqqPRvRgPMjAyNTA4MDEwMTA3NDFaAgkAtH1zPlOyXtKgghM6MIIG7TCCBNWgAwIBAgIQCoDvGEuN8QWC0cR2p5V0aDANBgkqhkiG9w0BAQsFADBpMQswCQYDVQQGEwJVUzEXMBUGA1UEChMORGlnaUNlcnQsIEluYy4xQTA/BgNVBAMTOERpZ2lDZXJ0IFRydXN0ZWQgRzQgVGltZVN0YW1waW5nIFJTQTQwOTYgU0hBMjU2IDIwMjUgQ0ExMB4XDTI1MDYwNDAwMDAwMFoXDTM2MDkwMzIzNTk1OVowYzELMAkGA1UEBhMCVVMxFzAVBgNVBAoTDkRpZ2lDZXJ0LCBJbmMuMTswOQYDVQQDEzJEaWdpQ2VydCBTSEEyNTYgUlNBNDA5NiBUaW1lc3RhbXAgUmVzcG9uZGVyIDIwMjUgMTCCAiIwDQYJKoZIhvcNAQEBBQADggIPADCCAgoCggIBANBGrC0Sxp7Q6q5gVrMrV7pvUf+GcAoB38o3zBlCMGMyqJnfFNZx+wvA69HFTBdwbHwBSOeLpvPnZ8ZN+vo8dE2/pPvOx/Vj8TchTySA2R4QKpVD7dvNZh6wW2R6kSu9RJt/4QhguSssp3qome7MrxVyfQO9sMx6ZAWjFDYOzDi8SOhPUWlLnh00Cll8pjrUcCV3K3E0zz09ldQ//nBZZREr4h/GI6Dxb2UoyrN0ijtUDVHRXdmncOOMA3CoB/iUSROUINDT98oksouTMYFOnHoRh6+86Ltc5zjPKHW5KqCvpSduSwhwUmotuQhcg9tw2YD3w6ySSSu+3qU8DD+nigNJFmt6LAHvH3KSuNLoZLc1Hf2JNMVL4Q1OpbybpMe46YceNA0LfNsnqcnpJeItK/DhKbPxTTuGoX7wJNdoRORVbPR1VVnDuSeHVZlc4seAO+6d2sC26/PQPdP51ho1zBp+xUIZkpSFA8vWdoUoHLWnqWU3dCCyFG1roSrgHjSHlq8xymLnjCbSLZ49kPmk8iyyizNDIXj//cOgrY7rlRyTlaCCfw7aSUROwnu7zER6EaJ+AliL7ojTdS5PWPsWeupWs7NpChUk555K096V1hE0yZIXe+giAwW00aHzrDchIc2bQhpp0IoKRR7YufAkprxMiXAJQ1XCmnCfgPf8+3mnAgMBAAGjggGVMIIBkTAMBgNVHRMBAf8EAjAAMB0GA1UdDgQWBBTkO/zyMe39/dfzkXFjGVBDz2GM6DAfBgNVHSMEGDAWgBTvb1NK6eQGfHrK4pBW9i/USezLTjAOBgNVHQ8BAf8EBAMCB4AwFgYDVR0lAQH/BAwwCgYIKwYBBQUHAwgwgZUGCCsGAQUFBwEBBIGIMIGFMCQGCCsGAQUFBzABhhhodHRwOi8vb2NzcC5kaWdpY2VydC5jb20wXQYIKwYBBQUHMAKGUWh0dHA6Ly9jYWNlcnRzLmRpZ2ljZXJ0LmNvbS9EaWdpQ2VydFRydXN0ZWRHNFRpbWVTdGFtcGluZ1JTQTQwOTZTSEEyNTYyMDI1Q0ExLmNydDBfBgNVHR8EWDBWMFSgUqBQhk5odHRwOi8vY3JsMy5kaWdpY2VydC5jb20vRGlnaUNlcnRUcnVzdGVkRzRUaW1lU3RhbXBpbmdSU0E0MDk2U0hBMjU2MjAyNUNBMS5jcmwwIAYDVR0gBBkwFzAIBgZngQwBBAIwCwYJYIZIAYb9bAcBMA0GCSqGSIb3DQEBCwUAA4ICAQBlKq3xHCcEua5gQezRCESeY0ByIfjk9iJP2zWLpQq1b4URGnwWBdEZD9gBq9fNaNmFj6Eh8/YmRDfxT7C0k8FUFqNh+tshgb4O6Lgjg8K8elC4+oWCqnU/ML9lFfim8/9yJmZSe2F8AQ/UdKFOtj7YMTmqPO9mzskgiC3QYIUP2S3HQvHG1FDu+WUqW4daIqToXFE/JQ/EABgfZXLWU0ziTN6R3ygQBHMUBaB5bdrPbF6MRYs03h4obEMnxYOX8VBRKe1uNnzQVTeLni2nHkX/QqvXnNb+YkDFkxUGtMTaiLR9wjxUxu2hECZpqyU1d0IbX6Wq8/gVutDojBIFeRlqAcuEVT0cKsb+zJNEsuEB7O7/cuvTQasnM9AWcIQfVjnzrvwiCZ85EE8LUkqRhoS3Y50OHgaY7T/lwd6UArb+BOVAkg2oOvol/DJgddJ35XTxfUlQ+8Hggt8l2Yv7roancJIFcbojBcxlRcGG0LIhp6GvReQGgMgYxQbV1S3CrWqZzBt1R9xJgKf47CdxVRd/ndUlQ05oxYy2zRWVFjF7mcr4C34Mj3ocCVccAvlKV9jEnstrniLvUxxVZE/rptb7IRE2lskKPIJgbaP5t2nGj/ULLi49xTcBZU8atufk+EMF/cWuiC7POGT75qaL6vdCvHlshtjdNXOCIUjsarfNZzCCBrQwggScoAMCAQICEA3HrFcF/yGZLkBDIgw6SYYwDQYJKoZIhvcNAQELBQAwYjELMAkGA1UEBhMCVVMxFTATBgNVBAoTDERpZ2lDZXJ0IEluYzEZMBcGA1UECxMQd3d3LmRpZ2ljZXJ0LmNvbTEhMB8GA1UEAxMYRGlnaUNlcnQgVHJ1c3RlZCBSb290IEc0MB4XDTI1MDUwNzAwMDAwMFoXDTM4MDExNDIzNTk1OVowaTELMAkGA1UEBhMCVVMxFzAVBgNVBAoTDkRpZ2lDZXJ0LCBJbmMuMUEwPwYDVQQDEzhEaWdpQ2VydCBUcnVzdGVkIEc0IFRpbWVTdGFtcGluZyBSU0E0MDk2IFNIQTI1NiAyMDI1IENBMTCCAiIwDQYJKoZIhvcNAQEBBQADggIPADCCAgoCggIBALR4MdMKmEFyvjxGwBysddujRmh0tFEXnU2tjQ2UtZmWgyxU7UNqEY81FzJsQqr5G7A6c+Gh/qm8Xi4aPCOo2N8S9SLrC6Kbltqn7SWCWgzbNfiR+2fkHUiljNOqnIVD/gG3SYDEAd4dg2dDGpeZGKe+42DFUF0mR/vtLa4+gKPsYfwEu7EEbkC9+0F2w4QJLVSTEG8yAR2CQWIM1iI5PHg62IVwxKSpO0XaF9DPfNBKS7Zazch8NF5vp7eaZ2CVNxpqumzTCNSOxm+SAWSuIr21Qomb+zzQWKhxKTVVgtmUPAW35xUUFREmDrMxSNlr/NsJyUXzdtFUUt4aS4CEeIY8y9IaaGBpPNXKFifinT7zL2gdFpBP9qh8SdLnEut/GcalNeJQ55IuwnKCgs+nrpuQNfVmUB5KlCX3ZA4x5HHKS+rqBvKWxdCyQEEGcbLe1b8Aw4wJkhU1JrPsFfxW1gaou30yZ46t4Y9F20HHfIY4/6vHespYMQmUiote8ladjS/nJ0+k6MvqzfpzPDOy5y6gqztiT96Fv/9bH7mQyogxG9QEPHrPV6/7umw052AkyiLA6tQbZl1KhBtTasySkuJDpsZGKdlsjg4u70EwgWbVRSX1Wd4+zoFpp4Ra+MlKM2baoD6x0VR4RjSpWM8o5a6D8bpfm4CLKczsG7ZrIGNTAgMBAAGjggFdMIIBWTASBgNVHRMBAf8ECDAGAQH/AgEAMB0GA1UdDgQWBBTvb1NK6eQGfHrK4pBW9i/USezLTjAfBgNVHSMEGDAWgBTs1+OC0nFdZEzfLmc/57qYrhwPTzAOBgNVHQ8BAf8EBAMCAYYwEwYDVR0lBAwwCgYIKwYBBQUHAwgwdwYIKwYBBQUHAQEEazBpMCQGCCsGAQUFBzABhhhodHRwOi8vb2NzcC5kaWdpY2VydC5jb20wQQYIKwYBBQUHMAKGNWh0dHA6Ly9jYWNlcnRzLmRpZ2ljZXJ0LmNvbS9EaWdpQ2VydFRydXN0ZWRSb290RzQuY3J0MEMGA1UdHwQ8MDowOKA2oDSGMmh0dHA6Ly9jcmwzLmRpZ2ljZXJ0LmNvbS9EaWdpQ2VydFRydXN0ZWRSb290RzQuY3JsMCAGA1UdIAQZMBcwCAYGZ4EMAQQCMAsGCWCGSAGG/WwHATANBgkqhkiG9w0BAQsFAAOCAgEAF877FoAc/gc9EXZxML2+C8i1NKZ/zdCHxYgaMH9Pw5tcBnPw6O6FTGNpoV2V4wzSUGvI9NAzaoQk97frPBtIj+ZLzdp+yXdhOP4hCFATuNT+ReOPK0mCefSG+tXqGpYZ3essBS3q8nL2UwM+NMvEuBd/2vmdYxDCvwzJv2sRUoKEfJ+nN57mQfQXwcAEGCvRR2qKtntujB71WPYAgwPyWLKu6RnaID/B0ba2H3LUiwDRAXx1Neq9ydOal95CHfmTnM4I+ZI2rVQfjXQA1WSjjf4J2a7jLzWGNqNX+DF0SQzHU0pTi4dBwp9nEC8EAqoxW6q17r0z0noDjs6+BFo+z7bKSBwZXTRNivYuve3L2oiKNqetRHdqfMTCW/NmKLJ9M+MtucVGyOxiDf06VXxyKkOirv6o02OoXN4bFzK0vlNMsvhlqgF2puE6FndlENSmE+9JGYxOGLS/D284NHNboDGcmWXfwXRy4kbu4QFhOm0xJuF2EZAOk5eCkhSxZON3rGlHqhpB/8MluDezooIs8CVnrpHMiD2wL40mm53+/j7tFaxYKIqL0Q4ssd8xHZnIn/7GELH3IdvG2XlM9q7WP/UwgOkw/HQtyRN62JK4S1C8uw3PdBunvAZapsiI5YKdvlarEvf8EA+8hcpSM9LHJmyrxaFtoza2zNaQ9k+5t1wwggWNMIIEdaADAgECAhAOmxiO+dAt5+/bUOIIQBhaMA0GCSqGSIb3DQEBDAUAMGUxCzAJBgNVBAYTAlVTMRUwEwYDVQQKEwxEaWdpQ2VydCBJbmMxGTAXBgNVBAsTEHd3dy5kaWdpY2VydC5jb20xJDAiBgNVBAMTG0RpZ2lDZXJ0IEFzc3VyZWQgSUQgUm9vdCBDQTAeFw0yMjA4MDEwMDAwMDBaFw0zMTExMDkyMzU5NTlaMGIxCzAJBgNVBAYTAlVTMRUwEwYDVQQKEwxEaWdpQ2VydCBJbmMxGTAXBgNVBAsTEHd3dy5kaWdpY2VydC5jb20xITAfBgNVBAMTGERpZ2lDZXJ0IFRydXN0ZWQgUm9vdCBHNDCCAiIwDQYJKoZIhvcNAQEBBQADggIPADCCAgoCggIBAL/mkHNo3rvkXUo8MCIwaTPswqclLskhPfKK2FnC4SmnPVirdprNrnsbhA3EMB/zG6Q4FutWxpdtHauyefLKEdLkX9YFPFIPUh/GnhWlfr6fqVcWWVVyr2iTcMKyunWZanMylNEQRBAu34LzB4TmdDttceItDBvuINXJIB1jKS3O7F5OyJP4IWGbNOsFxl7sWxq868nPzaw0QF+xembud8hIqGZXV59UWI4MK7dPpzDZVu7Ke13jrclPXuU15zHL2pNe3I6PgNq2kZhAkHnDeMe2scS1ahg4AxCN2NQ3pC4FfYj1gj4QkXCrVYJBMtfbBHMqbpEBfCFM1LyuGwN1XXhm2ToxRJozQL8I11pJpMLmqaBn3aQnvKFPObURWBf3JFxGj2T3wWmIdph2PVldQnaHiZdpekjw4KISG2aadMreSx7nDmOu5tTvkpI6nj3cAORFJYm2mkQZK37AlLTSYW3rM9nF30sEAMx9HJXDj/chsrIRt7t/8tWMcCxBYKqxYxhElRp2Yn72gLD76GSmM9GJB+G9t+ZDpBi4pncB4Q+UDCEdslQpJYls5Q5SUUd0viastkF13nqsX40/ybzTQRESW+UQUOsxxcpyFiIJ33xMdT9j7CFfxCBRa2+xq4aLT8LWRV+dIPyhHsXAj6KxfgommfXkaS+YHS312amyHeUbAgMBAAGjggE6MIIBNjAPBgNVHRMBAf8EBTADAQH/MB0GA1UdDgQWBBTs1+OC0nFdZEzfLmc/57qYrhwPTzAfBgNVHSMEGDAWgBRF66Kv9JLLgjEtUYunpyGd823IDzAOBgNVHQ8BAf8EBAMCAYYweQYIKwYBBQUHAQEEbTBrMCQGCCsGAQUFBzABhhhodHRwOi8vb2NzcC5kaWdpY2VydC5jb20wQwYIKwYBBQUHMAKGN2h0dHA6Ly9jYWNlcnRzLmRpZ2ljZXJ0LmNvbS9EaWdpQ2VydEFzc3VyZWRJRFJvb3RDQS5jcnQwRQYDVR0fBD4wPDA6oDigNoY0aHR0cDovL2NybDMuZGlnaWNlcnQuY29tL0RpZ2lDZXJ0QXNzdXJlZElEUm9vdENBLmNybDARBgNVHSAECjAIMAYGBFUdIAAwDQYJKoZIhvcNAQEMBQADggEBAHCgv0NcVec4X6CjdBs9thbX979XB72arKGHLOyFXqkauyL4hxppVCLtpIh3bb0aFPQTSnovLbc47/T/gLn4offyct4kvFIDyE7QKt76LVbP+fT3rDB6mouyXtTP0UNEm0Mh65ZyoUi0mcudT6cGAxN3J0TU53/oWajwvy8LpunyNDzs9wPHh6jSTEAZNUZqaVSwuKFWjuyk1T3osdz9HNj0d1pcVIxv76FQPfx2CWiEn2/K2yCNNWAcAgPLILCsWKAOQGPFmCLBsln1VWvPJ6tsds5vIy30fnFqI2si/xK4VC0nftg62fC2h5b9W9FcrBjDTZ9ztwGpn1eqXijiuZQxggN8MIIDeAIBATB9MGkxCzAJBgNVBAYTAlVTMRcwFQYDVQQKEw5EaWdpQ2VydCwgSW5jLjFBMD8GA1UEAxM4RGlnaUNlcnQgVHJ1c3RlZCBHNCBUaW1lU3RhbXBpbmcgUlNBNDA5NiBTSEEyNTYgMjAyNSBDQTECEAqA7xhLjfEFgtHEdqeVdGgwDQYJYIZIAWUDBAIBBQCggdEwGgYJKoZIhvcNAQkDMQ0GCyqGSIb3DQEJEAEEMBwGCSqGSIb3DQEJBTEPFw0yNTA4MDEwMTA3NDFaMCsGCyqGSIb3DQEJEAIMMRwwGjAYMBYEFN1iMKyGCi0wa9o4sWh5UjAH+0F+MC8GCSqGSIb3DQEJBDEiBCA9ETC0xO1ntuf2OpNdmMsEgN8J/6Irw9jdM2lxNqvA6TA3BgsqhkiG9w0BCRACLzEoMCYwJDAiBCBKoD+iLNdchMVck4+CjmdrnK7Ksz/jbSaaozTxRhEKMzANBgkqhkiG9w0BAQEFAASCAgCGPMp+UxDkVaWaeEer6em8dl81Yu1c/BmZTi0SWm1B0Taym5x/QGDcVO55AD2EwE5R2YPIXeVIHeQfANo8wk0+DBdzf7gISDD25v51AUD1iJQBL1W7XYcD/1T3TPDY0iwqXEnOFgCR6qB4o7ZU8nBfC/wwyg41IH7gX8J4/+lB52a4sPFtSnfBNc/E6VCJdwDAzEGbEqW/L/0AgIHFSywz+WIOxgxKkymgmZ6jz6SD4sxe0v4eDS9mdZIRxNFMFGRV/sWXilWYS2p6H677mWwDu9UnC4LbGJu4NZDT6LKATXCfuGUu7XzqH7j+hIf0Hwx4nnskOiP7qaOGJ2b0nKdW98KwCsNSnXtTJ1mXPUr1OFDeOE9BGBSqAz0rGjxnnwh/FtfnhbVdefyScnkkPOy9v0dlCeLDXDm2EJ047bWIORZIA23rhX1Pos18aXTRopdTflaVKWlD4o6/MMU279jbwW/S1wYnei3+rC5XOCSs3uGM6EKeaFzWUmLN/kKBBC110Z3FpleCx57n/WAhQ5/6cCITbOwLJpnTIvBczxkIqCFpPYouuLP0V28n7KY0i8H/nuHV41Pnh2Hfbsp3Gi4hPF5AEs5/zhgEu//tB2KFtbq4uxJ4NuIoZEKmGr+YfU43ZWPRu52+fh2o9aNXPD11VfA1tK/WHsBkytsL2F1Xh2NwYWRZEl8AAAAAAAAAAAAAAAAAAAAAAAAAAAAAAAAAAAAAAAAAAAAAAAAAAAAAAAAAAAAAAAAAAAAAAAAAAAAAAAAAAAAAAAAAAAAAAAAAAAAAAAAAAAAAAAAAAAAAAAAAAAAAAAAAAAAAAAAAAAAAAAAAAAAAAAAAAAAAAAAAAAAAAAAAAAAAAAAAAAAAAAAAAAAAAAAAAAAAAAAAAAAAAAAAAAAAAAAAAAAAAAAAAAAAAAAAAAAAAAAAAAAAAAAAAAAAAAAAAAAAAAAAAAAAAAAAAAAAAAAAAAAAAAAAAAAAAAAAAAAAAAAAAAAAAAAAAAAAAAAAAAAAAAAAAAAAAAAAAAAAAAAAAAAAAAAAAAAAAAAAAAAAAAAAAAAAAAAAAAAAAAAAAAAAAAAAAAAAAAAAAAAAAAAAAAAAAAAAAAAAAAAAAAAAAAAAAAAAAAAAAAAAAAAAAAAAAAAAAAAAAAAAAAAAAAAAAAAAAAAAAAAAAAAAAAAAAAAAAAAAAAAAAAAAAAAAAAAAAAAAAAAAAAAAAAAAAAAAAAAAAAAAAAAAAAAAAAAAAAAAAAAAAAAAAAAAAAAAAAAAAAAAAAAAAAAAAAAAAAAAAAAAAAAAAAAAAAAAAAAAAAAAAAAAAAAAAAAAAAAAAAAAAAAAAAAAAAAAAAAAAAAAAAAAAAAAAAAAAAAAAAAAAAAAAAAAAAAAAAAAAAAAAAAAAAAAAAAAAAAAAAAAAAAAAAAAAAAAAAAAAAAAAAAAAAAAAAAAAAAAAAAAAAAAAAAAAAAAAAAAAAAAAAAAAAAAAAAAAAAAAAAAAAAAAAAAAAAAAAAAAAAAAAAAAAAAAAAAAAAAAAAAAAAAAAAAAAAAAAAAAAAAAAAAAAAAAAAAAAAAAAAAAAAAAAAAAAAAAAAAAAAAAAAAAAAAAAAAAAAAAAAAAAAAAAAAAAAAAAAAAAAAAAAAAAAAAAAAAAAAAAAAAAAAAAAAAAAAAAAAAAAAAAAAAAAAAAAAAAAAAAAAAAAAAAAAAAAAAAAAAAAAAAAAAAAAAAAAAAAAAAAAAAAAAAAAAAAAAAAAAAAAAAAAAAAAAAAAAAAAAAAAAAAAAAAAAAAAAAAAAAAAAAAAAAAAAAAAAAAAAAAAAAAAAAAAAAAAAAAAAAAAAAAAAAAAAAAAAAAAAAAAAAAAAAAAAAAAAAAAAAAAAAAAAAAAAAAAAAAAAAAAAAAAAAAAAAAAAAAAAAAAAAAAAAAAAAAAAAAAAAAAAAAAAAAAAAAAAAAAAAAAAAAAAAAAAAAAAAAAAAAAAAAAAAAAAAAAAAAAAAAAAAAAAAAAAAAAAAAAAAAAAAAAAAAAAAAAAAAAAAAAAAAAAAAAAAAAAAAAAAAAAAAAAAAAAAAAAAAAAAAAAAAAAAAAAAAAAAAAAAAAAAAAAAAAAAAAAAAAAAAAAAAAAAAAAAAAAAAAAAAAAAAAAAAAAAAAAAAAAAAAAAAAAAAAAAAAAAAAAAAAAAAAAAAAAAAAAAAAAAAAAAAAAAAAAAAAAAAAAAAAAAAAAAAAAAAAAAAAAAAAAAAAAAAAAAAAAAAAAAAAAAAAAAAAAAAAAAAAAAAAAAAAAAAAAAAAAAAAAAAAAAAAAAAAAAAAAAAAAAAAAAAAAAAAAAAAAAAAAAAAAAAAAAAAAAAAAAAAAAAAAAAAAAAAAAAAAAAAAAAAAAAAAAAAAAAAAAAAAAAAAAAAAAAAAAAAAAAAAAAAAAAAAAAAAAAAAAAAAAAAAAAAAAAAAAAAAAAAAAAAAAAAAAAAAAAAAAAAAAAAAAAAAAAAAAAAAAAAAAAAAAAAAAAAAAAAAAAAAAAAAAAAAAAAAAAAAAAAAAAAAAAAAAAAAAAAAAAAAAAAAAAAAAAAAAAAAAAAAAAAAAAAAAAAAAAAAAAAAAAAAAAAAAAAAAAAAAAAAAAAAAAAAAAAAAAAAAAAAAAAAAAAAAAAAAAAAAAAAAAAAAAAAAAAAAAAAAAAAAAAAAAAAAAAAAAAAAAAAAAAAAAAAAAAAAAAAAAAAAAAAAAAAAAAAAAAAAAAAAAAAAAAAAAAAAAAAAAAAAAAAAAAAAAAAAAAAAAAAAAAAAAAAAAAAAAAAAAAAAAAAAAAAAAAAAAAAAAAAAAAAAAAAAAAAAAAAAAAAAAAAAAAAAAAAAAAAAAAAAAAAAAAAAAAAAAAAAAAAAAAAAAAAAAAAAAAAAAAAAAAAAAAAAAAAAAAAAAAAAAAAAAAAAAAAAAAAAAAAAAAAAAAAAAAAAAAAAAAAAAAAAAAAAAAAAAAAAAAAAAAAAAAAAAAAAAAAAAAAAAAAAAAAAAAAAAAAAAAAAAAAAAAAAAAAAAAAAAAAAAAAAAAAAAAAAAAAAAAAAAAAAAAAAAAAAAAAAAAAAAAAAAAAAAAAAAAAAAAAAAAAAAAAAAAAAAAAAAAAAAAAAAAAAAAAAAAAAAAAAAAAAAAAAAAAAAAAAAAAAAAAAAAAAAAAAAAAAAAAAAAAAAAAAAAAAAAAAAAAAAAAAAAAAAAAAAAAAAAAAAAAAAAAAAAAAAAAAAAAAAAAAAAAAAAAAAAAAAAAAAAAAAAAAAAAAAAAAAAAAAAAAAAAAAAAAAAAAAAAAAAAAAAAAAAAAAAAAAAAAAAAAAAAAAAAAAAAAAAAAAAAAAAAAAAAAAAAAAAAAAAAAAAAAAAAAAAAAAAAAAAAAAAAAAAAAAAAAAAAAAAAAAAAAAAAAAAAAAAAAAAAAAAAAAAAAAAAAAAAAAAAAAAAAAAAAAAAAAAAAAAAAAAAAAAAAAAAAAAAAAAAAAAAAAAAAAAAAAAAAAAAAAAAAAAAAAAAAAAAAAAAAAAAAAAAAAAAAAAAAAAAAAAAAAAAAAAAAAAAAAAAAAAAAAAAAAAAAAAAAAAAAAAAAAAAAAAAAAAAAAAAAAAAAAAAAAAAAAAAAAAAAAAAAAAAAAAAAAAAAAAAAAAAAAAAAAAAAAAAAAAAAAAAAAAAAAAAAAAAAAAAAAAAAAAAAAAAAAAAAAAAAAAAAAAAAAAAAAAAAAAAAAAAAAAAAAAAAAAAAAAAAAAAAAAAAAAAAAAAAAAAAAAAAAAAAAAAAAAAAAAAAAAAAAAAAAAAAAAAAAAAAAAAAAAAAAAAAAAAAAAAAAAAAAAAAAAAAAAAAAAAAAAAAAAAAAAAAAAAAAAAAAAAAAAAAAAAAAAAAAAAAAAAAAAAAAAAAAAAAAAAAAAAAAAAAAAAAAAAAAAAAAAAAAAAAAAAAAAAAAAAAAAAAAAAAAAAAAAAAAAAAAAAAAAAAAAAAAAAAAAAAAAAAAAAAAAAAAAAAAAAAAAAAAAAAAAAAAAAAAAAAAAAAAAAAAAAAAAAAAAAAAAAAAAAAAAAAAAAAAAAAAAAAAAAAAAAAAAAAAAAAAAAAAAAAAAAAAAAAAAAAAAAAAAAAAAAAAAAAAAAAAAAAAAAAAAAAAAAAAAAAAAAAAAAAAAAAAAAAAAAAAAAAAAAAAAAAAAAAAAAAAAAAAAAAAAAAAAAAAAAAAAAAAAAAAAAAAAAAAAAAAAAAAAAAAAAAAAAAAAAAAAAAAAAAAAAAAAAAAAAAAAAAAAAAAAAAAAAAAAAAAAAAAAAAAAAAAAAAAAAAAAAAAAAAAAAAAAAAAAAAAAAAAAAAAAAAAAAAAAAAAAAAAAAAAAAAAAAAAAAAAAAAAAAAAAAAAAAAAAAAAAAAAAAAAAAAAAAAAAAAAAAAAAAAAAAAAAAAAAAAAAAAAAAAAAAAAAAAAAAAAAAAAAAAAAAAAAAAAAAAAAAAAAAAAAAAAAAAAAAAAAAAAAAAAAAAAAAAAAAAAAAAAAAAAAAAAAAAAAAAAAAAAAAAAAAAAAAAAAAAAAAAAAAAAAAAAAAAAAAAAAAAAAAAAAAAAAAAAAAAAAAAAAAAAAAAAAAAAAAAAAAAAAAAAAAAAAAAAAAAAAAAAAAAAAAAAAAAAAAAAAAAAAAAAAAAAAAAAAAAAAAAAAAAAAAAAAAAAAAAAAAAAAAAAAAAAAAAAAAAAAAAAAAAAAAAAAAAAAAAAAAAAAAAAAAAAAAAAAAAAAAAAAAAAAAAAAAAAAAAAAAAAAAAAAAAAAAAAAAAAAAAAAAAAAAAAAAAAAAAAAAAAAAAAAAAAAAAAAAAAAAAAAAAAAAAAAAAAAAAAAAAAAAAAAAAAAAAAAAAAAAAAAAAAAAAAAAAAAAAAAAAAAAAAAAAAAAAAAAAAAAAAAAAAAAAAAAAAAAAAAAAAAAAAAAAAAAAAAAAAAAAAAAAAAAAAAAAAAAAAAAAAAAAAAAAAAAAAAAAAAAAAAAAAAAAAAAAAAAAAAAAAAAAAAAAAAAAAAAAAAAAAAAAAAAAAAAAAAAAAAAAAAAAAAAAAAAAAAAAAAAAAAAAAAAAAAAAAAAAAAAAAAAAAAAAAAAAAAAAAAAAAAAAAAAAAAAAAAAAAAAAAAAAAAAAAAAAAAAAAAAAAAAAAAAAAAAAAAAAAAAAAAAAAAAAAAAAAAAAAAAAAAAAAAAAAAAAAAAAAAAAAAAAAAAAAAAAAAAAAAAAAAAAAAAAAAAAAAAAAAAAAAAAAAAAAAAAAAAAAAAAAAAAAAAAAAAAAAAAAAAAAAAAAAAAAAAAAAAAAAAAAAAAAAAAAAAAAAAAAAAAAAAAAAAAAAAAAAAAAAAAAAAAAAAAAAAAAAAAAAAAAAAAAAAAAAAAAAAAAAAAAAAAAAAAAAAAAAAAAAAAAAAAAAAAAAAAAAAAAAAAAAAAAAAAAAAAAAAAAAAAAAAAAAAAAAAAAAAAAAAAAAAAAAAAAAAAAAAAAAAAAAAAAAAAAAAAAAAAAAAAAAAAAAAAAAAAAAAAAAAAAAAAAAAAAAAAAAAAAAAAAAAAAAAAAAAAAAAAAAAAAAAAAAAAAAAAAAAAAAAAAAAAAAAAAAAAAAAAAAAAAAAAAAAAAAAAAAAAAAAAAAAAAAAAAAAAAAAAAAAAAAAAAAAAAAAAAAAAAAAAAAAAAAAAAAAAAAAAAAAAAAAAAAAAAAAAAAAAAAAAAAAAAAAAAAAAAAAAAAAAAAAAAAAAAAAAAAAAAAAAAAAAAAAAAAAAAAAAAAAAAAAAAAAAAAAAAAAAAAAAAAAAAAAAAAAAAAAAAAAAAAAAAAAAAAAAAAAAAAAAAAAAAAAAAAAAAAAAAAAAAAAAAAAAAAAAAAAAAAAAAAAAAAAAAAAAAAAAAAAAAAAAAAAAAAAAAAAAAAAAAAAAAAAAAAAAAAAAAAAAAAAAAAAAAAAAAAAAAAAAAAAAAAAAAAAAAAAAAAAAAAAAAAAAAAAAAAAAAAAAAAAAAAAAAAAAAAAAAAAAAAAAAAAAAAAAAAAAAAAAAAAAAAAAAAAAAAAAAAAAAAAAAAAAAAAAAAAAAAAAAAAAAAAAAAAAAAAAAAAAAAAAAAAAAAAAAAAAAAAAAAAAAAAAAAAAAAAAAAAAAAAAAAAAAAAAAAAAAAAAAAAAAAAAAAAAAAAAAAAAAAAAAAAAAAAAAAAAAAAAAAAAAAAAAAAAAAAAAAAAAAAAAAAAAAAAAAAAAAAAAAAAAAAAAAAAAAAAAAAAAAAAAAAAAAAAAAAAAAAAAAAAAAAAAAAAAAAAAAAAAAAAAAAAAAAAAAAAAAAAAAAAAAAAAAAAAAAAAAAAAAAAAAAAAAAAAAAAAAAAAAAAAAAAAAAAAAAAAAAAAAAAAAAAAAAAAAAAAAAAAAAAAAAAAAAAAAAAAAAAAAAAAAAAAAAAAAAAAAAAAAAAAAAAAAAAAAAAAAAAAAAAAAAAAAAAAAAAAAAAAAAAAAAAAAAAAAAAAAAAAAAAAAAAAAAAAAAAAAAAAAAAAAAAAAAAAAAAAAAAAAAAAAAAAAAAAAAAAAAAAAAAAAAAAAAAAAAAAAAAAAAAAAAAAAAAAAAAAAAAAAAAAAAAAAAAAAAAAAAAAAAAAAAAAAAAAAAAAAAAAAAAAAAAAAAAAAAAAAAAAAAAAAAAAAAAAAAAAAAAAAAAAAAAAAAAAAAAAAAAAAAAAAAAAAAAAAAAAAAAAAAAAAAAAAAAAAAAAAAAAAAAAAAAAAAAAAAAAAAAAAAAAAAAAAAAAAAAAAAAAAAAAAAAAAAAAAAAAAAAAAAAAAAAAAAAAAAAAAAAAAAAAAAAAAAAAAAAAAAAAAAAAAAAAAAAAAAAAAAAAAAAAAAAAAAAAAAAAAAAAAAAAAAAAAAAAAAAAAAAAAAAAAAAAAAAAAAAAAAAAAAAAAAAAAAAAAAAAAAAAAAAAAAAAAAAAAAAAAAAAAAAAAAAAAAAAAAAAAAPZZAQCrjN91VYIk3E9u+1AqypS1RkGoMCp07/v9YXBSvsTTZY1Ue/jgIxGC7wztdl378G3wxWnwAYUQ2ZKbR+qoIfwKFldCm+kzr9yZJGjWoIwO/Aia73j2IpnIeMNTBjAw18LIozmkIFvXtIAStIMYnX37UO0U8HiZOZ7bBjvM8vjHf99WNiUrNLIDkKSQ9xJwBE2xc7FvZoRrNNIuYrRqInJOVn4J+m4nYyBNSmT82i+6SrzHTHJJ5TVb546gSbfsHuCFf5oihcwG4A9893uPwm7Ayp1vdH9aPj239+Hqy69GHtipcqO7uNIvtbuINcBVX1wgq34hY0v+XACRueMik+2P</c2pa:manifest></metadata>
<style type="text/css">
	.st0{fill:#FDFDFD;}
	.st1{fill:#FEFEFE;}
</style>
<g>
	<path class="st0" d="M383.34,0.3c7.58,2.11,15.46,2.59,23.09,4.61c46,12.19,76.3,46.19,82.96,93.03
		c3.55,24.99,2.31,49.58-6.51,73.33c-11.71,31.51-33.83,53.18-65.72,64.01c-32.42,11.01-65.52,11.29-97.99,0.5
		c-42.26-14.04-65.93-44.56-73.54-87.64c-4.38-24.82-3.17-49.56,5.34-73.44c14.18-39.78,43.31-62.53,84.18-71.46
		c4.73-1.03,9.75-0.69,14.23-2.94C360.69,0.3,372.01,0.3,383.34,0.3z M417.15,121.03c-0.3-6.45-0.4-13.89-1.03-21.3
		c-1.22-14.53-3.39-28.9-9.82-42.24c-7.65-15.86-20.03-24.61-38.05-24.92c-18.36-0.32-31.48,7.85-39.58,24.08
		c-1.76,3.53-3.18,7.26-4.36,11.02c-6.53,20.82-7.18,42.29-6.56,63.82c0.47,16.21,1.93,32.36,7.58,47.78
		c4.08,11.12,9.97,20.94,20.88,26.76c24.02,12.83,51.45,2.2,61.97-24.07C415.91,162.71,416.5,142.35,417.15,121.03z"/>
	<path class="st1" d="M0.73,9.24c73.59,0,147.18,0.05,220.76-0.11c4.59-0.01,5.64,1.18,5.6,5.63c-0.22,25.5-0.21,51.01,0,76.52
		c0.03,3.88-1.11,4.64-4.7,4.51c-7.65-0.28-15.33-0.36-22.97,0.03c-4.03,0.2-4.51-1.3-4.48-4.74c0.07-8.46-0.96-16.85-3.7-24.91
		c-5.38-15.85-17.17-23.74-33.27-26.02c-11.9-1.68-11.91-1.59-11.91,10.22c0,46.04,0,92.09,0,138.13c0,11.66,3.86,15.53,15.44,15.53
		c4.99,0,10,0.16,14.98-0.06c2.71-0.12,3.32,0.83,3.27,3.36c-0.16,7.78-0.15,15.57,0,23.35c0.05,2.64-0.5,3.72-3.49,3.71
		c-41.79-0.1-83.58-0.09-125.37-0.02c-2.69,0-3.85-0.59-3.78-3.55c0.19-7.95,0.16-15.9,0-23.85c-0.05-2.49,0.79-3.06,3.13-3
		c5.99,0.15,11.99,0.08,17.98,0.04c8.68-0.05,13.37-4.5,13.38-13.09c0.05-49.36,0-98.71,0.09-148.07c0.01-3.14-0.9-4.09-3.98-3.56
		c-3.27,0.56-6.64,0.54-9.9,1.15c-20.25,3.78-31.62,16.17-34.12,37.17c-0.58,4.92-1.01,9.88-1.09,14.83
		c-0.05,2.65-0.85,3.34-3.42,3.3c-9.49-0.14-18.98-0.05-28.47-0.05C0.73,66.88,0.73,38.06,0.73,9.24z"/>
	<path class="st1" d="M1273.41,66.56c0,2.83,0,4.23,0,5.63c0,38.59,0,77.18,0,115.77c0,12.39,3.89,16.21,16.44,16.22
		c4.33,0,8.67,0.22,12.98-0.07c3.53-0.24,5.01,0.51,4.82,4.49c-0.36,7.44-0.19,14.9-0.05,22.35c0.05,2.49-0.54,3.43-3.27,3.42
		c-32.97-0.09-65.93-0.08-98.9-0.01c-2.54,0.01-3.53-0.66-3.48-3.33c0.15-7.78,0.18-15.57-0.01-23.35
		c-0.07-2.96,1.06-3.63,3.78-3.54c5.49,0.17,10.99,0.1,16.48,0.04c9.33-0.1,13.7-4.41,13.74-13.79c0.08-15.9,0.02-31.8,0.02-47.7
		c0-29.32,0-58.63,0-87.95c0-11.46-4.09-15.51-15.64-15.52c-5.16-0.01-10.33-0.12-15.48,0.05c-2.51,0.09-3.48-0.49-3.41-3.22
		c0.19-7.95,0.16-15.9,0.01-23.85c-0.05-2.44,0.75-3.01,3.09-3c34.8,0.07,69.59,0.1,104.39-0.04c3.14-0.01,3.84,1.92,4.95,3.87
		c24.46,42.96,48.92,85.92,73.38,128.88c4.07,7.15,8.15,14.3,13.04,21.42c0-1.37,0-2.74,0-4.11c0-35.11,0.01-70.23,0-105.34
		c0-10.14-4.41-14.59-14.49-14.66c-5.49-0.03-10.99-0.05-16.48,0.02c-1.88,0.03-3.08-0.1-3.04-2.56c0.14-8.28,0.14-16.56,0-24.84
		c-0.04-2.37,0.97-2.64,2.95-2.63c32.97,0.04,65.93,0.05,98.9-0.01c2.27,0,3.21,0.42,3.15,2.94c-0.16,7.95-0.17,15.9,0,23.85
		c0.06,2.65-0.74,3.38-3.35,3.29c-5.49-0.19-10.99-0.13-16.48-0.04c-8.52,0.13-12.89,4.18-13.63,12.57
		c-0.15,1.64-0.07,3.31-0.07,4.96c0,57.31-0.05,114.62,0.1,171.92c0.01,4.45-0.99,5.82-5.67,5.75c-19.64-0.28-39.29-0.22-58.94-0.03
		c-3.5,0.03-5.28-1.16-6.95-4.12c-29.74-52.7-59.59-105.34-89.42-157.99C1275.99,70.79,1275.06,69.32,1273.41,66.56z"/>
	<path class="st0" d="M580.34,9.41c24.47,0,48.94-0.29,73.4,0.11c14.83,0.24,29.53,2.31,43.41,7.96
		c26.87,10.94,36.73,31.74,35.46,59.85c-1.54,34.13-21.32,49.15-51.32,56.02c-17.97,4.11-36.28,4.31-54.6,4.1
		c-7.66-0.09-15.32,0.14-22.97-0.09c-3.27-0.1-4.59,0.49-4.54,4.2c0.22,16.39,0.04,32.79,0.12,49.18
		c0.05,8.96,4.6,13.38,13.54,13.43c6.33,0.04,12.65,0.11,18.98-0.04c2.67-0.06,3.89,0.5,3.81,3.51c-0.19,7.78-0.16,15.57-0.01,23.35
		c0.05,2.71-0.64,3.73-3.59,3.73c-42.62-0.09-85.23-0.08-127.85-0.02c-2.51,0-3.55-0.61-3.51-3.3c0.14-7.95,0.13-15.9,0-23.85
		c-0.04-2.54,0.7-3.51,3.38-3.43c5.65,0.18,11.32,0.07,16.98,0.05c9.23-0.03,13.83-4.4,13.95-13.6c0.14-10.43,0.03-20.87,0.03-31.3
		c0-34.61,0-69.22,0-103.83c0-11.97-4.22-16.22-16.12-16.24c-5.16-0.01-10.32-0.11-15.48,0.04c-2.44,0.07-3.11-0.8-3.08-3.15
		c0.13-7.62,0.22-15.24-0.03-22.85c-0.11-3.28,0.87-4.12,4.13-4.1c25.3,0.14,50.61,0.07,75.91,0.07
		C580.34,9.3,580.34,9.35,580.34,9.41z M599.28,72.85c0,8.11,0,16.22,0,24.33c0,10.28,0,10.37,10.34,10.25
		c11.11-0.13,22.31,0.97,33.26-1.9c16.96-4.45,26.25-17.33,25.25-34.95c-0.92-16.36-12.37-28.7-29.13-30.75
		c-12.25-1.5-24.6-0.25-36.89-0.65c-3.26-0.11-2.84,1.89-2.84,3.88C599.28,52.99,599.28,62.92,599.28,72.85z"/>
	<path class="st0" d="M829.06,9.24c22.46,0.61,49.94-1.13,77.36,1.01c13.84,1.08,27.33,3.79,39.77,10.22
		c15.65,8.09,25,20.93,27.99,38.18c2.38,13.74,1.95,27.38-3.25,40.54c-7.15,18.11-21.94,27.11-39.7,32.35
		c-14.29,4.22-29,5.68-43.84,5.87c-13.65,0.17-27.3,0.14-40.95-0.04c-3.3-0.04-4.57,0.55-4.52,4.23c0.22,16.23,0.07,32.46,0.1,48.69
		c0.02,9.46,4.41,13.96,13.99,14.22c6.16,0.16,12.33,0.2,18.48-0.04c3.17-0.12,3.96,0.98,3.88,3.97
		c-0.19,7.12-0.27,14.25,0.02,21.36c0.16,3.84-0.88,4.99-4.91,4.97c-38.29-0.16-76.58-0.06-114.87-0.14
		c-4.93-0.01-11.51,2.16-14.32-0.99c-2.44-2.74-0.75-9.14-0.83-13.93c-0.06-3.64,0.23-7.31-0.08-10.92
		c-0.32-3.65,1.18-4.46,4.54-4.31c5.48,0.25,10.99,0.26,16.47-0.01c8.99-0.46,13.22-4.88,13.31-13.9
		c0.12-12.59,0.03-25.17,0.03-37.76c0-32.46,0-64.92,0-97.38c0-11.73-4.13-15.85-15.84-15.86c-5.16,0-10.33-0.12-15.48,0.05
		c-2.67,0.09-3.4-0.9-3.36-3.45c0.14-7.45,0.27-14.91-0.04-22.35c-0.16-3.72,0.86-4.66,4.63-4.64
		C773.13,9.33,798.6,9.24,829.06,9.24z M842.02,73.84c0,9.94,0.01,19.87-0.01,29.81c0,2.02-0.36,3.98,2.87,3.86
		c11.96-0.44,23.97,0.79,35.9-0.88c19.73-2.75,31.38-16.94,30.03-36.52c-1.25-18.05-15.39-30.53-34.64-30.56
		c-9.66-0.01-19.32,0.2-28.97-0.1c-4.05-0.13-5.45,0.82-5.3,5.08C842.25,54.29,842.02,64.07,842.02,73.84z"/>
	<path class="st0" d="M1125.83,234.32c-18.64,0-37.28-0.1-55.92,0.09c-3.47,0.03-4.5-0.82-4.37-4.32c0.28-7.61,0.2-15.23,0.02-22.84
		c-0.06-2.63,0.73-3.31,3.33-3.3c6.47,0.03,12.97,0.57,19.4-0.82c5.75-1.25,6.86-2.37,6.16-7.96c-1.33-10.55-5.48-20.38-8.12-30.61
		c-0.5-1.93-2.05-1.8-3.59-1.8c-19.97,0.01-39.94,0.04-59.91-0.04c-2.13-0.01-3.38,0.48-3.98,2.64c-2.53,9.06-5.38,18.04-7.69,27.16
		c-1.75,6.92,0.06,9.07,7.19,10.57c6.27,1.31,12.61,1.13,18.89,0.82c3.96-0.2,4.63,1.17,4.49,4.69c-0.28,7.27-0.21,14.57-0.02,21.85
		c0.07,2.85-0.42,3.97-3.71,3.96c-30.96-0.14-61.91-0.13-92.87-0.02c-3.06,0.01-4.03-0.81-3.94-3.9c0.21-7.61,0.26-15.24-0.02-22.84
		c-0.12-3.3,1.12-3.94,3.99-3.66c2.14,0.21,4.34-0.11,6.48,0.07c9.62,0.79,15.76-3.72,19.46-12.25
		c7.03-16.23,11.8-33.24,17.47-49.94c14.55-42.83,28.83-85.74,43.12-128.65c0.96-2.9,2.13-4.09,5.45-4.06
		c20.14,0.19,40.28,0.19,60.41,0c3.41-0.03,4.38,1.33,5.29,4.2c17.5,55.4,35.09,110.77,52.7,166.14c1.2,3.77,2.66,7.47,4.16,11.13
		c3.78,9.23,10.18,14.28,20.77,13.5c6.49-0.48,6.52-0.09,6.52,6.38c0,5.63,0.05,11.26-0.01,16.89c-0.09,8.04,1.11,6.9-6.73,6.93
		C1162.11,234.37,1143.97,234.32,1125.83,234.32z M1054.29,60.18c-0.43,0.64-0.81,1.01-0.96,1.45
		c-7.56,22.68-15.08,45.37-22.66,68.03c-0.86,2.56,0.03,3.03,2.44,3.01c12.97-0.09,25.95-0.13,38.92,0.02
		c3.08,0.04,3.21-1.09,2.5-3.48C1067.79,106.29,1061.08,83.35,1054.29,60.18z"/>
</g>
</svg>
