<svg viewBox="0 0 594.79 100" xmlns="http://www.w3.org/2000/svg">
 <defs>
  <style>.a,.b{fill:#003f76;}.a{fill-rule:evenodd;}.c{fill:#d8a500;}</style>
 </defs>
 <path class="a" d="M152.25,9.1l2.23-3.93L164,8.54l-1.12,2.25c-1.11,0-1.67.56-1.67,2.25S152.25,9.1,152.25,9.1Z"/>
 <path class="b" d="m280.6 13.5 1.4-1.09c12.69 9.9 20.11 23.22 21.92 37.69 0.4 3.26-2.31 6.49-4.18 6.52-4.14 0.07-6-2.53-6.08-7.28-0.23-11.25-4.74-24.77-13.06-35.84z"/>
 <path class="b" d="m295.14 10.21a3.5 3.5 0 0 0 7 0 3.5 3.5 0 0 0-7 0zm-3.48 0c0-3.48 3.12-6.29 7-6.29s6.95 2.81 6.95 6.29-3.11 6.28-6.95 6.28-7-2.81-7-6.28z"/>
 <path class="a" d="m262.5 11.1c1.1 8.68-3.19 28.78-15.24 45.57l1.22 1.13c10.83-9.3 17.75-22.09 21.83-37.44a7.48 7.48 0 0 1 3.39-4.55 24 24 0 0 0-11.2-4.71z"/>
 <polygon class="a" points="44.35 19.79 88.96 19.79 90.63 16.98 101.23 20.35 100.11 22.6 44.91 22.6"/>
 <path class="a" d="M75.58,21.48C78.36,36.1,86.73,46.3,100.67,51.92a16.3,16.3,0,0,1-.52,4.29,11.35,11.35,0,0,1-1.71,4.08C81.64,54.81,74.67,38.65,73.9,22.6l0-1.12Z"/>
 <path class="a" d="M43.79,58C57.18,53.54,66.1,38.91,66.1,22.6V2.92L77.25,4V5.73A3.09,3.09,0,0,0,74.46,9.1V22.6c0,20.81-11.15,33.19-30.67,37.69Z"/>
 <rect class="b" x="116.28" y="9.1" width="7.25" height="50.62"/>
 <polygon class="a" points="106.24 20.91 125.2 20.91 126.32 18.66 134.13 21.48 133.01 23.73 106.8 23.73"/>
 <path class="a" d="M106.24,10.23a72.54,72.54,0,0,0,20.08-7.31L132.45,8,131.34,9.1c-1.32-.84-1.45-.9-3.9,0-4.18,1.54-13.43,2.73-21.2,2.82Z"/>
 <path class="a" d="m133.57 41.16c0-6.75-4.46-15.16-10.57-15.16v1.1c2.22 1.13 3.34 2.81 3.34 14.06z"/>
 <polygon class="a" points="134.13 4.6 141.38 7.34 141.38 59.73 134.13 59.73"/>
 <rect class="b" x="153.92" y="9.1" width="7.25" height="50.62"/>
 <rect class="b" x="139.7" y="8.54" width="14.78" height="2.81"/>
 <rect class="b" x="139.7" y="53.54" width="14.78" height="2.81"/>
 <path class="a" d="m114.38 23.19c-1.4 11.24-5.23 20.73-9.25 25.28v2.82c4-2.46 11-9.83 12-14.75v-13.37z"/>
 <path class="a" d="M188.49,31.82h7.92c8.71,0,11-6.83,11-11.26,0-5.62-3.16-11.09-9.76-11.09h-4.43c-3.13,0-4.7,1.41-4.7,4.5Zm7.71,26.51H172.11V55.84H175c3.54,0,4.85-1.7,4.85-5.05V14.18c0-3.23-1.55-4.85-4.63-4.85h-2.64V6.84h25.86c11.21,0,17.95,6.36,17.95,13.38,0,7.54-5,14.22-19,14.22h-8.91V50.79c0,3.35,1.66,4.92,5,4.92h2.72Z"/>
 <path class="a" d="M220.51,6.84v2.3c4.16,0,6,1.18,6,6.4V49.63c0,4.88-1.55,6.41-6,6.41v2.29h20.61V56c-4.48,0-6-1.53-6-6.41V15.54c0-5.29,1.55-6.06,6-6.4V6.84Z"/>
 <path class="b" d="M525.87,34.21c7.94,3.59,16.69,11.19,19,16.92,1.4,3.47.61,7.62-3,8.21-2.7.43-4.45-2-5.38-5.83-1.44-5.86-7.13-13.57-11.77-17.63a61.69,61.69,0,0,1-31.48,22.76l-.67-2c17.77-9.42,29.58-28.13,33.47-43H510.6a14.93,14.93,0,0,0-8.38,2.18c-2-1.73-3.58-5.82-4.11-7.44-.13-.39.06-.75.43-.7a131.86,131.86,0,0,0,14.82.71h10c2.5,0,5.09-2.28,6.36-4,3,1.63,9.52,7.52,9.52,8.74s-3.6,1-4.29,3A77.62,77.62,0,0,1,525.87,34.21Z"/>
 <path class="b" d="m538 6.25 0.81-1.3c9.38 1.77 11.86 5.86 11.86 8.51a2.56 2.56 0 0 1-2.75 2.73c-3.59 0-3.19-5.79-9.92-9.94z"/>
 <path class="b" d="m542.39 1.39 0.61-1.39c9.54 0.42 12.56 4.12 12.92 6.75a2.58 2.58 0 0 1-2.35 3.09c-3.52 0.5-3.91-5.29-11.18-8.45z"/>
 <path class="b" d="M320.43,35.65c-3.68,0-5.72.79-7.33,2-2.52-2.3-4.72-6.63-5.4-8.34-.09-.22,0-.43.24-.4A147.24,147.24,0,0,0,323,29.7l12.73.14c2.57,0,8.3-.92,9.61-2.18a12.37,12.37,0,0,1,6.74,6.3c.27.73-.61,1.69-2.7,1.69Z"/>
 <path class="b" d="M466.34,35.65c-3.68,0-5.72.79-7.33,2-2.52-2.3-4.72-6.63-5.4-8.34-.08-.22,0-.43.24-.4a147.1,147.1,0,0,0,15.07.81l12.73.14c2.57,0,8.3-.92,9.61-2.18A12.33,12.33,0,0,1,498,34c.28.73-.61,1.69-2.69,1.69Z"/>
 <path class="b" d="M368,24.31c8.7-.07,20.76,3.05,25.23,7.19,2.73,2.53,3.76,6.6.7,8.67-2.26,1.53-4.89.06-7.33-3C383,32.68,373.93,28.29,368,26.48V60.36a23.25,23.25,0,0,1-7.89-2V3.27c0-.14,0-.37.29-.3,3.2.93,6.66,2,9.4,4-1.05,1.27-1.8,3.16-1.8,6.4Z"/>
 <path class="a" d="M408.23,24c-3.43,0-5.33.72-6.82,1.79-2.38-2-4.09-5.69-4.78-7.24a.37.37,0,0,1,.3-.56c2.84.38,10.41.64,13.87.64h28.89c2.39,0,7.72-.84,8.94-2a11.59,11.59,0,0,1,6.28,5.83c.25.66-.58,1.52-2.52,1.52Z"/>
 <path class="b" d="M431.51,12.84a7.82,7.82,0,0,1,1.82-5c-2.3-2.25-6.93-4-9.53-4.48-.18,0-.27,0-.27.26V36.23c0,9.07-7,17.84-19,22l.57,2c17.87-2.87,26.39-13.52,26.39-23.45Z"/>
 <rect class="c" y="69.51" width="594.79" height="4.13"/>
 <path class="a" d="M367.2,85V99.71h3.69v-8.4c0-1.46,0-3.57,3.27-3.34h.7V84.75h-.7a3.27,3.27,0,0,0-3.4,2.18h-.06V85Z"/>
 <path class="a" d="M358.82,90.94c0-2.5,0-4.33,1.68-4.33s1.69,2.06,1.69,4.33Zm7.06,1.88c.13-4.71-.42-8.07-5.38-8.07s-5.4,3.43-5.4,7.43c0,4.59.63,7.82,5.4,7.82a5.2,5.2,0,0,0,3.89-1.42,5.56,5.56,0,0,0,1.42-3.81h-3.56c0,2.13-.35,3.28-1.66,3.28s-1.77-.86-1.77-5.23Z"/>
 <path class="a" d="M279,81.28v6.63h2.2c1.17,0,2-1.42,2-2.82,0-1.71-.42-3.81-2.19-3.81Zm-3.94,18.39v-21h7.1c3.61,0,5,2.44,5,6.27,0,2.39-.63,5.74-5.25,5.74H279v9Z"/>
 <polygon class="a" points="243.08 99.69 247.34 99.69 248.66 89.67 248.71 89.67 249.82 99.69 254.1 99.69 256.56 85.03 253.41 85.03 251.94 96.14 251.89 96.14 250.38 85.03 246.94 85.03 245.3 96.14 245.25 96.14 243.89 85.03 240.75 85.03"/>
 <path class="a" d="M263.66,92c0,2.74.34,5.44-1.83,5.44-.94,0-1.36-.78-1.36-2.33C260.47,92.52,261.75,92,263.66,92Zm3.61-2.38c0-2.67-.6-4.91-5.29-4.91a5.3,5.3,0,0,0-3.45,1,4.23,4.23,0,0,0-1.36,3.58h3.61c0-1.74.16-2.76,1.45-2.76s1.43,1,1.43,2.67v1.13c-3.43-.06-6.8.14-6.8,5,0,2.55.94,4.67,3.5,4.67a3.6,3.6,0,0,0,3.45-2.23h.06l.15,1.94h3.43c-.08-.9-.18-1.83-.18-2.73Z"/>
 <path class="a" d="M213.07,81.28h2c2.75,0,2.75,4.06,2.75,7.93,0,5.25-.48,7.92-2.88,7.92h-1.91Zm-3.95,18.41h6.44c6.74,0,6.3-7.38,6.3-10.6,0-6.54-1-10.37-6.15-10.37h-6.59Z"/>
 <path class="a" d="M230.06,92c0,2.74.34,5.44-1.83,5.44-.94,0-1.36-.78-1.36-2.33C226.87,92.52,228.15,92,230.06,92Zm3.61-2.38c0-2.67-.6-4.91-5.29-4.91a5.3,5.3,0,0,0-3.45,1,4.23,4.23,0,0,0-1.36,3.58h3.61c0-1.74.16-2.76,1.45-2.76s1.43,1,1.43,2.67v1.13c-3.43-.06-6.8.14-6.8,5,0,2.55.94,4.67,3.5,4.67a3.63,3.63,0,0,0,3.46-2.23h.05l.15,1.94h3.43c-.08-.9-.18-1.83-.18-2.73Z"/>
 <path class="a" d="m239.55 85h-3.69v14.69h3.69zm-3.69-6.3v3.22h3.69v-3.2z"/>
 <path class="a" d="M334.53,87.13H336v9.46c0,.9.41,3.25,3.61,3.25a13.39,13.39,0,0,0,1.91-.15V97.58a2.28,2.28,0,0,1-.66.06c-1.2,0-1.18-.73-1.18-1.83V87.13h1.91V85h-1.91V81.94H336V85h-1.5Z"/>
 <path class="a" d="M305.13,81.28v6.63h2.19c1.18,0,2-1.42,2-2.82,0-1.71-.42-3.81-2.19-3.81Zm-3.95,18.39v-21h7.11c3.6,0,5,2.44,5,6.27,0,2.39-.63,5.74-5.26,5.74h-2.92v9Z"/>
 <path class="a" d="M320.13,92c0,2.74.34,5.44-1.83,5.44-.94,0-1.36-.78-1.36-2.33C316.94,92.52,318.22,92,320.13,92Zm3.61-2.38c0-2.67-.6-4.91-5.28-4.91a5.32,5.32,0,0,0-3.46,1,4.26,4.26,0,0,0-1.36,3.58h3.62c0-1.74.15-2.76,1.44-2.76s1.43,1,1.43,2.67v1.13c-3.42-.06-6.8.14-6.8,5,0,2.55.94,4.67,3.5,4.67a3.63,3.63,0,0,0,3.46-2.23h0l.16,1.94h3.42c-.08-.9-.18-1.83-.18-2.73Z"/>
 <path class="a" d="M325.78,85V99.71h3.68v-8.4c0-1.46,0-3.57,3.28-3.34h.69V84.75h-.69a3.28,3.28,0,0,0-3.41,2.18h-.05V85Z"/>
 <path class="b" d="M375.58,95c-.21,4.1,1.93,5,5.15,5,3,0,4.94-1.92,4.94-4.47,0-4.89-6.54-4.34-6.54-7.12,0-1.08.38-1.79,1.31-1.79s1.32.4,1.31,2v.62h3.61c.2-3.17-2.07-4.5-4.58-4.5s-5.2,1-5.2,4.13c0,4.83,6.48,3.7,6.48,7.08,0,1.25-.34,2-1.36,2a1.32,1.32,0,0,1-1.35-.76,7.28,7.28,0,0,1-.16-2.25Z"/>
 <path class="b" d="M347.28,85H343.6V99.67h3.68V89.36c0-1.3.21-2.32,1.39-2.32s1.38,1,1.38,2.32V99.67h3.68V87.91a3.12,3.12,0,0,0-3.29-3.19,3.18,3.18,0,0,0-3.1,1.77h-.06Z"/>
 <rect class="b" x="288.96" y="78.7" width="3.95" height="20.96"/>
</svg>
