<svg id="a" data-name="Layer 1" viewBox="0 0 202 24" xmlns="http://www.w3.org/2000/svg">
 <defs>
  <style>.cls-1 {
        stroke: #152147;
        stroke-miterlimit: 10;
        stroke-width: .5px;
      }

      .cls-1, .cls-2 {
        fill: #152147;
      }

      .cls-2 {
        fill-rule: evenodd;
      }</style>
 </defs>
 <path class="cls-2" d="M18.21,19.3l-1.86-6.27,5.08-3.65c1.09,3.66-.22,7.62-3.22,9.92h0ZM16.53,20.32c-2.22,1.05-4.72,1.17-7.04.34-.76-.27-1.46-.63-2.11-1.08l5.42-3.67,5.03,3.65c-.41.28-.84.53-1.31.75h0ZM4.28,15.93c-.97-2.06-1.15-4.36-.5-6.52l5.21,3.98-1.96,5.93c-1.16-.88-2.1-2.04-2.74-3.39h0ZM3.94,8.89c.83-2.31,2.51-4.16,4.74-5.21,1.17-.55,2.41-.85,3.66-.88l-2.18,6.17H3.92s.02-.05.03-.08h0ZM15.72,3.34c2.31.83,4.17,2.51,5.21,4.73.14.29.26.58.36.87l-6.53-.16-1.96-5.99c.98.02,1.97.2,2.92.54h0ZM22.67,7.25c-1.27-2.69-3.51-4.72-6.3-5.72-2.8-1-5.82-.86-8.51.41-2.69,1.27-4.72,3.51-5.73,6.3-1,2.8-.86,5.82.41,8.51,1.27,2.69,3.51,4.72,6.3,5.72,1.23.44,2.5.66,3.77.66,1.62,0,3.23-.36,4.74-1.07,5.55-2.62,7.93-9.26,5.32-14.81"/>
 <path class="cls-1" d="M31.73,13.55c0,2.41,0,3.7.39,4.04.32.28.81.41,2.27.41,1,0,1.73-.02,2.2-.53.23-.24.45-.77.49-1.13.02-.17.06-.28.21-.28.13,0,.15.09.15.32,0,.21-.13,1.62-.28,2.16-.11.41-.21.51-1.18.51-1.73,0-3.46-.11-5.47-.11-.75,0-1.52.06-2.37.06-.24,0-.38-.06-.38-.19,0-.09.08-.15.3-.15.28,0,.51-.04.68-.08.38-.08.47-.49.55-1.03.09-.79.09-2.27.09-4v-3.31c0-2.86,0-3.38-.04-3.99-.04-.64-.19-.94-.81-1.07-.15-.04-.38-.06-.62-.06-.21,0-.32-.04-.32-.17s.13-.17.41-.17c.88,0,2.07.06,2.58.06.45,0,1.82-.06,2.56-.06.26,0,.39.04.39.17s-.11.17-.34.17c-.21,0-.51.02-.73.06-.51.09-.66.41-.7,1.07-.04.6-.04,1.13-.04,3.99v3.31Z"/>
 <path class="cls-1" d="M38.03,12.96c0-2.82,1.88-6.28,6.82-6.28,4.14,0,6.66,2.54,6.66,5.98,0,3.67-2.58,6.54-6.81,6.54-4.72,0-6.67-3.4-6.67-6.24ZM49.07,13.27c0-3.4-1.96-5.73-4.7-5.73-1.84,0-3.91.94-3.91,4.89,0,3.27,1.79,5.9,4.91,5.9,1.15,0,3.7-.47,3.7-5.06Z"/>
 <path class="cls-1" d="M54.14,7.23c0-.36.06-.58.24-.58.17,0,.32.19.6.47.3.26,2.5,2.54,5.19,5.06,1.22,1.17,3.33,3.31,3.63,3.57l-.15-6.96c-.02-.96-.15-1.28-.6-1.45-.24-.08-.62-.08-.85-.09-.21,0-.28-.09-.28-.19,0-.13.19-.15.41-.15.83,0,1.67.06,2.09.06.21,0,.88-.06,1.67-.06.21,0,.36.04.36.17,0,.09-.08.17-.28.17-.17.02-.3.02-.47.06-.49.13-.64.45-.66,1.35-.08,2.41-.11,6.6-.17,9.95,0,.43-.09.58-.24.58-.21,0-.45-.21-.81-.53-1.05-.96-3.06-2.9-4.62-4.4-1.65-1.54-3.5-3.5-3.95-3.97l.17,6.52c.04,1.22.23,1.62.56,1.73.28.09.6.09.88.11.17,0,.28.06.28.15,0,.13-.15.19-.38.19-.98,0-1.64-.06-2.07-.06-.21,0-1.07.06-1.88.06-.21,0-.36-.02-.36-.17,0-.09.09-.17.26-.17.21-.02.49-.02.71-.08.47-.13.55-.55.56-1.94.04-3.38.13-7.31.13-9.42Z"/>
 <path class="cls-1" d="M68.95,11.54c0-2.44,0-2.88-.04-3.4-.04-.53-.17-.73-.68-.85-.15-.04-.41-.04-.64-.06-.19,0-.28-.06-.28-.17s.11-.15.38-.15c.79,0,1.54.06,2.37.06.51,0,3.95,0,4.25-.02.32-.04.6-.08.75-.09.09-.02.19-.08.26-.08.09,0,.11.08.11.15,0,.11-.11.34-.15,1.02-.02.3-.04.62-.08,1.11,0,.09-.04.26-.19.26-.11,0-.15-.09-.17-.3,0-.08,0-.32-.09-.53-.11-.3-.26-.47-1.07-.56-.32-.04-2.01-.08-2.39-.08-.08,0-.11.06-.11.17v3.89c0,.11.02.17.11.17.39,0,2.2,0,2.61-.02.47-.04.71-.09.86-.26.11-.15.19-.21.26-.21s.11.04.11.13c0,.11-.08.47-.13,1.24,0,.32-.06,1-.06,1.13s-.02.3-.17.3c-.11,0-.17-.17-.17-.26-.02-.15-.02-.24-.06-.43-.09-.36-.28-.6-.94-.66-.34-.04-1.92-.06-2.33-.06-.09,0-.11.08-.11.17v1.22c0,.55-.02,1.86,0,2.35.04,1.11.28,1.35,2.01,1.35.43,0,1.13,0,1.54-.19.43-.21.62-.53.75-1.2.04-.17.08-.26.21-.26s.13.15.13.32c0,.41-.13,1.56-.23,1.88-.11.41-.26.41-.88.41-1.64,0-3.05-.09-4.72-.09-.68,0-1.35.06-2.14.06-.23,0-.34-.06-.34-.17,0-.08.06-.17.28-.17.23-.02.43-.02.58-.06.34-.08.43-.43.49-1,.08-.66.08-1.88.08-3.25v-2.82Z"/>
 <path class="cls-1" d="M82.36,18.77c-.3-.13-.36-.23-.36-.64,0-1.03.08-2.16.09-2.46.02-.28.08-.49.23-.49.17,0,.19.17.19.32,0,.24.08.64.17.96.41,1.39,1.52,1.9,2.69,1.9,1.69,0,2.52-1.15,2.52-2.14,0-.92-.28-1.79-1.84-3.01l-.86-.68c-2.07-1.62-2.78-2.93-2.78-4.46,0-2.07,1.73-3.55,4.34-3.55.71,0,1.28.08,1.73.15.32.06.56.11.77.17.17.04.26.09.26.23,0,.24-.08.79-.08,2.26,0,.41-.06.56-.21.56-.13,0-.19-.11-.19-.34,0-.17-.09-.75-.49-1.24-.28-.36-.83-.92-2.05-.92-1.39,0-2.24.81-2.24,1.94,0,.86.43,1.52,1.99,2.71l.53.39c2.28,1.71,3.08,3.01,3.08,4.79,0,1.09-.41,2.39-1.77,3.27-.94.6-1.99.77-2.99.77-1.09,0-1.94-.13-2.74-.49Z"/>
 <path class="cls-1" d="M97.12,14.36c0,1.43,0,2.69.08,3.38.06.43.15.79.66.85.23.04.56.06.81.08.19,0,.28.08.28.15,0,.11-.11.19-.34.19-1.09,0-2.24-.06-2.65-.06-.38,0-1.52.06-2.16.06-.23,0-.34-.08-.34-.19,0-.08.08-.15.28-.15.23-.02.41-.02.56-.06.36-.08.45-.41.51-.88.08-.68.08-1.88.08-3.37v-6.5c-.62,0-1.86,0-2.61.06-.96.08-1.24.15-1.47.56-.11.21-.15.34-.23.53-.04.11-.09.19-.19.19-.11,0-.15-.09-.15-.28.02-.34.32-1.67.36-1.88.04-.23.09-.34.19-.34.13,0,.28.15.7.19.45.06,1.13.09,1.69.09h6.66c.53,0,.88-.06,1.13-.09.24-.04.38-.08.47-.08.11,0,.13.09.13.38,0,.32-.08,1.49-.08,1.9-.02.17-.06.26-.17.26-.13,0-.15-.09-.17-.32,0-.06-.02-.13-.02-.21-.04-.43-.43-.86-1.82-.88-.45-.04-1.15-.06-2.18-.08v6.5Z"/>
 <path class="cls-1" d="M103.56,15.03c-.08,0-.11.04-.15.13l-.83,2.05c-.15.39-.24.79-.24.98,0,.47.58.49.94.49.23,0,.28.08.28.15,0,.13-.13.17-.3.17-.58,0-1.26-.06-1.84-.06-.19,0-1.13.06-1.99.06-.21,0-.3-.04-.3-.17,0-.09.09-.17.23-.17,1.18-.11,1.45-.34,1.88-1.43l3.99-9.42c.34-.88.53-1.24.73-1.24.15,0,.24.17.43.58.32.92,3.1,7.33,4.15,9.74.6,1.41,1.07,1.65,1.47,1.73.17.04.45.04.62.04.21,0,.28.08.28.17,0,.11-.08.17-.32.17-.79,0-2.76.04-3.95-.04-.17-.02-.28-.06-.28-.15,0-.08.08-.11.17-.15.17-.06.3-.11.19-.34l-1.28-3.18c-.02-.08-.08-.11-.15-.11h-3.72ZM106.93,14.09c.09,0,.09-.04.08-.09l-1.47-3.84c-.06-.15-.11-.19-.19,0l-1.49,3.84c-.02.06,0,.09.08.09h2.99Z"/>
 <path class="cls-1" d="M114.03,11.54c0-2.44,0-2.8-.04-3.31-.04-.56-.19-.81-.7-.9-.21-.04-.43-.06-.64-.08-.19,0-.28-.06-.28-.17s.11-.17.36-.17c.85,0,1.99.06,2.31.06.51,0,1.84-.06,2.41-.06,1.13,0,2.24.11,3.08.66.53.34,1.22,1.15,1.22,2.24,0,1.2-.56,2.27-2.2,3.5,1.39,1.73,2.56,3.21,3.53,4.21.9.96,1.52,1.03,1.82,1.11.17.02.3.02.43.04.15,0,.23.08.23.15,0,.13-.11.19-.32.19h-1.58c-1.09,0-1.56-.11-2.03-.36-.66-.36-1.28-1.09-2.14-2.28-.68-.94-1.37-1.94-1.62-2.22-.06-.08-.15-.09-.26-.09l-1.33-.04c-.08,0-.13.04-.13.13v.34c0,1.45,0,2.56.08,3.21.04.47.15.83.66.88.23.06.56.06.79.08.15,0,.21.08.21.15,0,.11-.11.19-.32.19-1,0-2.31-.06-2.56-.06-.28,0-1.43.06-2.09.06-.21,0-.32-.06-.32-.17,0-.08.08-.17.26-.17.24-.02.45-.02.6-.06.32-.08.43-.41.47-.9.09-.66.09-1.86.09-3.35v-2.82ZM116.16,12.76c0,.15.04.23.15.26.34.13.83.19,1.26.19.6,0,.86-.08,1.15-.28.47-.34.92-1.03.92-2.31,0-2.27-1.56-2.88-2.5-2.88-.39,0-.7.02-.85.08-.09.04-.13.09-.13.23v4.72Z"/>
 <path class="cls-1" d="M130.88,10.24c0-2.86,0-3.38-.04-3.99-.04-.64-.19-.94-.81-1.07-.15-.04-.47-.06-.73-.06-.19,0-.32-.04-.32-.15,0-.15.15-.19.43-.19.86,0,1.73.06,2.71.06.71,0,4.53,0,4.96-.02.36-.02.58-.02.77-.08.11-.04.21-.11.3-.11.08,0,.13.08.13.17,0,.13-.09.36-.15.85-.02.19-.06,1.3-.09,1.52-.02.15-.06.26-.19.26s-.17-.09-.19-.3c0-.15,0-.45-.11-.71-.13-.26-.53-.55-1.24-.56-.66-.02-2.33-.04-2.9-.06-.11,0-.17.06-.17.26v4.7c0,.11.02.17.13.17.51,0,1.73-.02,2.41-.02,1.09,0,1.39,0,1.65-.36.09-.11.13-.19.24-.19.08,0,.11.06.11.17s-.09.58-.15,1.17c-.04.38-.08,1.24-.08,1.37,0,.17,0,.36-.19.36-.11,0-.15-.13-.15-.26s-.04-.36-.11-.58c-.09-.26-.38-.6-.96-.68-.47-.06-2.46-.06-2.78-.06-.09,0-.13.04-.13.17v1.52c0,1.8,0,3.21.09,4,.06.55.17.96.73,1.03.26.04.68.08.94.08.24,0,.32.06.32.15,0,.13-.13.19-.41.19-1.18,0-2.37-.06-2.86-.06s-1.67.06-2.39.06c-.26,0-.39-.04-.39-.19,0-.09.08-.15.28-.15.28,0,.51-.04.68-.08.38-.08.47-.49.55-1.03.09-.79.09-2.2.09-4v-3.31Z"/>
 <path class="cls-1" d="M143.12,13.81c0,2.31.45,3.27,1.3,3.91.71.55,1.45.6,1.97.6.7,0,1.56-.19,2.2-.81.92-.86.94-2.35.94-3.99v-1.99c0-2.41-.04-2.8-.06-3.31-.04-.55-.13-.81-.68-.9-.13-.04-.38-.06-.6-.08-.19,0-.28-.06-.28-.17s.09-.17.36-.17c.85,0,1.9.06,1.96.06.23,0,1.26-.06,1.94-.06.24,0,.36.06.36.17s-.09.17-.3.17c-.19.02-.28.02-.49.08-.43.08-.55.32-.58.88-.04.51-.06.92-.06,3.33v1.69c0,1.79-.17,3.68-1.6,4.85-1.15.94-2.35,1.13-3.44,1.13-.98,0-2.56-.09-3.72-1.11-.85-.71-1.49-1.88-1.49-4.21v-2.35c0-2.44,0-2.82-.04-3.35-.04-.51-.15-.75-.66-.86-.15-.04-.45-.06-.68-.08-.19,0-.3-.08-.3-.19s.13-.15.39-.15c.85,0,1.99.06,2.43.06.36,0,1.58-.06,2.16-.06.26,0,.38.06.38.17s-.11.17-.28.17c-.17.02-.3.04-.49.08-.45.08-.58.36-.6.9-.04.51-.04.98-.04,3.31v2.28Z"/>
 <path class="cls-1" d="M154.06,7.23c0-.36.06-.58.24-.58.17,0,.32.19.6.47.3.26,2.5,2.54,5.19,5.06,1.22,1.17,3.33,3.31,3.63,3.57l-.15-6.96c-.02-.96-.15-1.28-.6-1.45-.24-.08-.62-.08-.85-.09-.21,0-.28-.09-.28-.19,0-.13.19-.15.41-.15.83,0,1.67.06,2.09.06.21,0,.88-.06,1.67-.06.21,0,.36.04.36.17,0,.09-.08.17-.28.17-.17.02-.3.02-.47.06-.49.13-.64.45-.66,1.35-.08,2.41-.11,6.6-.17,9.95,0,.43-.09.58-.24.58-.21,0-.45-.21-.81-.53-1.05-.96-3.06-2.9-4.62-4.4-1.65-1.54-3.5-3.5-3.95-3.97l.17,6.52c.04,1.22.23,1.62.56,1.73.28.09.6.09.88.11.17,0,.28.06.28.15,0,.13-.15.19-.38.19-.98,0-1.64-.06-2.07-.06-.21,0-1.07.06-1.88.06-.21,0-.36-.02-.36-.17,0-.09.09-.17.26-.17.21-.02.49-.02.71-.08.47-.13.55-.55.56-1.94.04-3.38.13-7.31.13-9.42Z"/>
 <path class="cls-1" d="M168.87,11.54c0-2.41,0-2.82-.04-3.33-.04-.53-.15-.86-.71-.92l-.64-.06c-.19,0-.28-.06-.28-.17s.11-.15.36-.15c.79,0,1.92.06,2.43.06.55,0,1.5-.06,2.59-.06,2.22,0,4.78.08,6.54,1.84.83.81,1.6,2.14,1.6,4.06s-.88,3.52-1.8,4.44c-.77.75-2.39,1.88-5.49,1.88-1.2,0-2.69-.19-3.5-.19-.45,0-1.47.06-2.16.06-.23,0-.32-.06-.32-.17,0-.08.09-.17.28-.17s.38-.02.58-.06c.64-.11.56-1.73.56-4.25v-2.82ZM171.09,13.3c0,1.69.02,2.88.04,3.18.02.45.04.94.21,1.2.19.3.88.62,2.09.62,1.58,0,2.61-.3,3.59-1.15,1.03-.86,1.33-2.27,1.33-3.91,0-1.92-.83-3.18-1.54-3.89-1.43-1.39-3.21-1.62-4.46-1.62-.34,0-.94.06-1.05.15-.17.13-.21.17-.21,3.44v1.97Z"/>
 <path class="cls-1" d="M182.39,18.79c-.26-.11-.32-.23-.32-.55,0-.96.06-1.9.08-2.18.02-.26.08-.41.21-.41.15,0,.17.13.19.26.02.21.02.49.11.75.34,1.22,1.37,1.73,2.44,1.73,1.5,0,2.18-.92,2.18-1.75,0-.75-.23-1.47-1.62-2.48l-.79-.6c-1.86-1.41-2.46-2.48-2.46-3.8,0-1.77,1.52-3.08,3.87-3.08.75,0,1.2.09,1.67.17.26.04.49.09.68.11.15.02.19.09.19.21,0,.26-.08.71-.08,1.99,0,.36-.06.49-.19.49-.11,0-.17-.11-.19-.32-.02-.21-.13-.66-.38-1.02-.28-.43-.81-.85-1.88-.85-1.24,0-1.96.68-1.96,1.6,0,.7.34,1.32,1.69,2.24l.53.36c2.11,1.43,2.78,2.54,2.78,4.06,0,.98-.41,2.09-1.62,2.84-.85.51-1.8.64-2.67.64-1.02,0-1.77-.11-2.48-.41Z"/>
</svg>
